HIERARCHY
ROOT hip
{
  OFFSET 0 0 0
  CHANNELS 6 Xposition Yposition Zposition Zrotation Yrotation Xrotation
  JOINT abdomen
  {
    OFFSET 0 20.6881 -0.73152
    CHANNELS 3 Zrotation Xrotation Yrotation
    JOINT chest
    {
      OFFSET 0 11.7043 -0.48768
      CHANNELS 3 Zrotation Xrotation Yrotation
      JOINT neck
      {
        OFFSET 0 22.1894 -2.19456
        CHANNELS 3 Zrotation Xrotation Yrotation
        JOINT head
        {
          OFFSET -0.24384 7.07133 1.2192
          CHANNELS 3 Zrotation Xrotation Yrotation
          JOINT leftEye
          {
            OFFSET 4.14528 8.04674 8.04672
            CHANNELS 3 Zrotation Xrotation Yrotation
            End Site
            {
              OFFSET 1 0 0
            }
          }
          JOINT rightEye
          {
            OFFSET -3.6576 8.04674 8.04672
            CHANNELS 3 Zrotation Xrotation Yrotation
            End Site
            {
              OFFSET 1 0 0
            }
          }
        }
      }
      JOINT rCollar
      {
        OFFSET -2.68224 19.2634 -4.8768
        CHANNELS 3 Zrotation Xrotation Yrotation
        JOINT rShldr
        {
          OFFSET -8.77824 -1.95073 1.46304
          CHANNELS 3 Zrotation Xrotation Yrotation
          JOINT rForeArm
          {
            OFFSET -28.1742 -1.7115 0.48768
            CHANNELS 3 Zrotation Xrotation Yrotation
            JOINT rHand
            {
              OFFSET -22.5879 0.773209 7.07136
              CHANNELS 3 Zrotation Xrotation Yrotation
              JOINT rThumb1
              {
                OFFSET -1.2192 -0.487915 3.41376
                CHANNELS 3 Zrotation Xrotation Yrotation
                JOINT rThumb2
                {
                  OFFSET -3.37035 -0.52449 3.41376
                  CHANNELS 3 Zrotation Xrotation Yrotation
                  End Site
                  {
                    OFFSET -1.78271 -1.18214 1.43049
                  }
                }
              }
              JOINT rIndex1
              {
                OFFSET -7.75947 0.938293 5.60832
                CHANNELS 3 Zrotation Xrotation Yrotation
                JOINT rIndex2
                {
                  OFFSET -2.54057 -0.884171 1.56538
                  CHANNELS 3 Zrotation Xrotation Yrotation
                  End Site
                  {
                    OFFSET -1.62519 -0.234802 1.16502
                  }
                }
              }
              JOINT rMid1
              {
                OFFSET -8.24714 1.18213 3.41376
                CHANNELS 3 Zrotation Xrotation Yrotation
                JOINT rMid2
                {
                  OFFSET -3.10165 -0.590103 1.0647
                  CHANNELS 3 Zrotation Xrotation Yrotation
                  End Site
                  {
                    OFFSET -2.48547 -0.328903 0.83742
                  }
                }
              }
              JOINT rRing1
              {
                OFFSET -8.82822 0.546677 1.51678
                CHANNELS 3 Zrotation Xrotation Yrotation
                JOINT rRing2
                {
                  OFFSET -2.60934 -0.819778 -0.0198488
                  CHANNELS 3 Zrotation Xrotation Yrotation
                  End Site
                  {
                    OFFSET -2.33842 -0.294052 0.168128
                  }
                }
              }
              JOINT rPinky1
              {
                OFFSET -8.27202 -0.0477905 -0.4584
                CHANNELS 3 Zrotation Xrotation Yrotation
                JOINT rPinky2
                {
                  OFFSET -1.82734 -0.647385 -0.700984
                  CHANNELS 3 Zrotation Xrotation Yrotation
                  End Site
                  {
                    OFFSET -1.69225 -0.51767 -0.607171
                  }
                }
              }
            }
          }
        }
      }
      JOINT lCollar
      {
        OFFSET 2.68224 19.2634 -4.8768
        CHANNELS 3 Zrotation Xrotation Yrotation
        JOINT lShldr
        {
          OFFSET 8.77824 -1.95073 1.46304
          CHANNELS 3 Zrotation Xrotation Yrotation
          JOINT lForeArm
          {
            OFFSET 28.1742 -1.7115 0.48768
            CHANNELS 3 Zrotation Xrotation Yrotation
            JOINT lHand
            {
              OFFSET 22.5879 0.773209 7.07136
              CHANNELS 3 Zrotation Xrotation Yrotation
              JOINT lThumb1
              {
                OFFSET 1.2192 -0.487915 3.41376
                CHANNELS 3 Zrotation Xrotation Yrotation
                JOINT lThumb2
                {
                  OFFSET 3.37035 -0.52449 3.41376
                  CHANNELS 3 Zrotation Xrotation Yrotation
                  End Site
                  {
                    OFFSET 1.78271 -1.18214 1.43049
                  }
                }
              }
              JOINT lIndex1
              {
                OFFSET 7.75947 0.938293 5.60832
                CHANNELS 3 Zrotation Xrotation Yrotation
                JOINT lIndex2
                {
                  OFFSET 2.54057 -0.884171 1.56538
                  CHANNELS 3 Zrotation Xrotation Yrotation
                  End Site
                  {
                    OFFSET 1.62519 -0.234802 1.16502
                  }
                }
              }
              JOINT lMid1
              {
                OFFSET 8.24714 1.18213 3.41376
                CHANNELS 3 Zrotation Xrotation Yrotation
                JOINT lMid2
                {
                  OFFSET 3.10165 -0.590103 1.0647
                  CHANNELS 3 Zrotation Xrotation Yrotation
                  End Site
                  {
                    OFFSET 2.48547 -0.328903 0.83742
                  }
                }
              }
              JOINT lRing1
              {
                OFFSET 8.82822 0.546677 1.51678
                CHANNELS 3 Zrotation Xrotation Yrotation
                JOINT lRing2
                {
                  OFFSET 2.60934 -0.819778 -0.0198488
                  CHANNELS 3 Zrotation Xrotation Yrotation
                  End Site
                  {
                    OFFSET 2.33842 -0.294052 0.168128
                  }
                }
              }
              JOINT lPinky1
              {
                OFFSET 8.27202 -0.0477905 -0.4584
                CHANNELS 3 Zrotation Xrotation Yrotation
                JOINT lPinky2
                {
                  OFFSET 1.82734 -0.647385 -0.700984
                  CHANNELS 3 Zrotation Xrotation Yrotation
                  End Site
                  {
                    OFFSET 1.69225 -0.51767 -0.607171
                  }
                }
              }
            }
          }
        }
      }
    }
  }
  JOINT rButtock
  {
    OFFSET -8.77824 4.35084 1.2192
    CHANNELS 3 Zrotation Xrotation Yrotation
    JOINT rThigh
    {
      OFFSET 0 -1.70687 -2.19456
      CHANNELS 3 Zrotation Xrotation Yrotation
      JOINT rShin
      {
        OFFSET 0 -36.8199 0.73152
        CHANNELS 3 Zrotation Xrotation Yrotation
        JOINT rFoot
        {
          OFFSET 0.73152 -45.1104 -5.12064
          CHANNELS 3 Zrotation Xrotation Yrotation
          End Site
          {
            OFFSET -1.1221 -3.69964 12.103
          }
        }
      }
    }
  }
  JOINT lButtock
  {
    OFFSET 8.77824 4.35084 1.2192
    CHANNELS 3 Zrotation Xrotation Yrotation
    JOINT lThigh
    {
      OFFSET 0 -1.70687 -2.19456
      CHANNELS 3 Zrotation Xrotation Yrotation
      JOINT lShin
      {
        OFFSET 0 -36.8199 0.73152
        CHANNELS 3 Zrotation Xrotation Yrotation
        JOINT lFoot
        {
          OFFSET -0.73152 -45.1104 -5.12064
          CHANNELS 3 Zrotation Xrotation Yrotation
          End Site
          {
            OFFSET 1.1221 -3.69964 12.103
          }
        }
      }
    }
  }
}
MOTION
Frames:	4
Frame Time:	0.03333
0.013915668241679668 29.187108993530273 0.09707551449537277 -19.27675187587738 -4.264423660933971 2.557026296854019 2.4979224801063538 11.04427456855774 -0.06939612329006195 7.709383517503738 -6.312145069241524 -0.8865453489124775 -4.225336164236069 12.05310434103012 -1.568056270480156 2.6074518263339996 -16.658091098070145 -8.805067911744118 -7.057180926203728 -0.9557321760803461 1.0920888930559158 3.9047102630138397 1.2273121252655983 3.5594050213694572 0.7943489402532578 -5.6252521276474 1.8308745324611664 36.500307619571686 23.703448176383972 13.216499090194702 -21.55515432357788 -26.138395071029663 48.295260071754456 -2.8800635039806366 -5.40702760219574 -0.25503868237137794 2.1131709963083267 1.2329323589801788 0.9008728712797165 4.320324920117855 -2.888317331671715 -0.5873752757906914 1.191246472299099 -2.3119377717375755 0.3802487254142761 8.975005969405174 9.48726162314415 -1.496637761592865 -0.3201206400990486 0.42138522025197744 3.728371113538742 1.4449234306812286 6.676904037594795 -5.45444805175066 1.3959137722849846 3.0418067425489426 5.157897993922234 12.026192396879196 -2.0118770375847816 1.7205147072672844 -1.1720700189471245 2.8368397057056427 -2.371952533721924 3.1749603152275085 -2.2944702208042145 1.751127764582634 2.698797471821308 1.3331172242760658 2.572889383882284 -50.746960043907166 29.68540996313095 -19.484507739543915 19.5927831530571 -24.757052063941956 -55.831666588783264 -0.9985357895493507 -2.490282878279686 1.0483038425445557 -1.8123039230704308 3.377576395869255 -1.79602961987257 1.6939353570342064 -4.032623805105686 -0.30184507369995117 -1.3286208361387253 0.11954337358474731 2.8450308367609978 -4.754306003451347 10.800913721323013 -3.9641493558883667 -2.386431936174631 3.883560374379158 2.47866690158844 2.4956362321972847 1.6481929644942284 1.3083403185009956 0.9746087249368429 -5.677395612001419 3.773174062371254 -13.542819321155548 5.718198046088219 -1.7144577763974667 -2.2532838955521584 3.6410410702228546 -3.3341319859027863 4.215289279818535 4.074423015117645 -0.8265575766563416 2.5310464203357697 2.2893760353326797 -1.9954421371221542 -22.712806463241577 -29.105521738529205 -37.39882618188858 -10.418881326913834 45.55734157562256 14.955735951662064 -9.468033537268639 -10.946136564016342 -4.034518115222454 -0.5682745110243559 1.5400238335132599 0.5394056439399719 26.938280761241913 -25.464012622833252 18.31034928560257 13.180420696735382 50.69582641124725 -14.086942970752716 3.7683896720409393 -8.64242747426033 10.780288875102997
0.015544505673460662 62.26601791381836 0.320108138024807 -22.842512726783752 -5.508805029094219 11.580926924943924 5.995532423257828 9.395654797554016 -6.995814666152 9.619604498147964 -8.346740081906319 -0.619638729840517 -0.5129389464855194 15.707600712776184 3.5539651662111282 3.6973218619823456 -16.15891456604004 -2.7658329159021378 -0.16822010278701782 1.756272241473198 1.5956414490938187 4.074424356222153 4.433902390301228 3.045880012214184 -0.2541627734899521 -8.264686614274979 5.699118822813034 48.812416791915894 25.164012908935547 20.209248661994934 -28.460640907287598 -29.687129259109497 58.58531892299652 2.6245133578777313 -7.297944724559784 1.8041092716157436 0.13373292982578278 -3.5995352268218994 3.826967105269432 1.5361624583601952 -3.526477888226509 0.31157243996858597 4.804109595716 3.0402815714478493 2.4205729365348816 18.441246449947357 14.554979056119919 -3.896227777004242 -5.844719856977463 -4.694711342453957 8.54791983962059 3.050415962934494 8.3993449062109 -6.197580546140671 8.322485536336899 2.2432970255613327 12.51827985048294 20.220196098089218 0.9787162765860558 8.78718227148056 9.025870710611343 0.4933856427669525 -2.060531973838806 0.8002705872058868 -1.8857230246067047 -2.2360416501760483 6.303154304623604 3.462584652006626 9.887911900877953 -55.584458112716675 39.88051861524582 -25.78998953104019 25.000400841236115 -27.631693482398987 -75.49286484718323 -4.260874427855015 -9.637254104018211 2.91206493973732 -7.230157256126404 7.8680261224508286 -0.5620324658229947 2.422637902200222 -6.498294398188591 0.09439229965209961 2.7407462149858475 0.6467127799987793 1.109561137855053 -1.6786611825227737 11.75818607211113 -8.664980828762054 1.9801667891442776 10.147214457392693 2.0871931314468384 6.220827251672745 -5.259235538542271 -3.7962494418025017 5.405162125825882 -4.5166656374931335 -0.3589191287755966 -19.877274334430695 8.068765327334404 -1.3557579182088375 -3.2263068482279778 9.330548197031021 2.7105732075870037 9.756022319197655 3.8976117968559265 -0.13050824403762817 6.207695156335831 3.150220289826393 -6.060803309082985 -28.42911422252655 -37.58242607116699 -38.143876791000366 -23.550452291965485 61.66684448719025 16.76567181944847 -21.15328162908554 -12.895989865064621 -4.123454801738262 -0.44555271975696087 4.481055289506912 -6.947353184223175 25.19113004207611 -22.52792179584503 36.84556424617767 8.77141423523426 59.3041455745697 -9.066646993160248 5.142622143030167 -11.635381132364273 22.459018528461456
0.0007487767143175006 57.86461639404297 0.3321479531005025 -22.47193068265915 2.2114937379956245 -14.203352183103561 5.539712458848953 10.77634871006012 -8.277545794844627 7.6555730402469635 -10.242157950997353 -3.2076296210289 1.5908999741077423 14.975169897079468 3.7360549718141556 6.013618558645248 -16.452353596687317 -1.1481604725122452 -3.923955112695694 1.8500932306051254 1.9522089511156082 2.91194424033165 0.43437737971544266 5.211570672690868 -4.32314895093441 -7.293694764375687 3.4219662845134735 58.309829235076904 27.526400685310364 12.933547496795654 -31.10878586769104 -33.056461215019226 63.722800612449646 0.45293256640434265 -14.102419316768646 -0.04628235474228859 1.4464596658945084 -4.845324754714966 5.0805457681417465 4.355550371110439 -0.5678323656320572 -0.863117091357708 5.7242149114608765 0.5268746986985207 0.018837153911590576 18.00395518541336 11.04155346751213 -1.491396725177765 -1.7808623984456062 -5.11386014521122 7.008586674928665 5.244017690420151 7.400098666548729 -3.3112074807286263 6.012529581785202 -1.8741298466920853 9.614026173949242 21.15221545100212 4.218556545674801 3.098769150674343 4.667259939014912 2.163315564393997 0.27673959732055664 1.6182638704776764 -2.303718477487564 -1.8276190012693405 4.006955064833164 1.1956942453980446 8.878666386008263 -61.64059638977051 33.755211532115936 -24.93859201669693 25.14857679605484 -24.462695717811584 -69.42823469638824 -2.553042210638523 -5.267554745078087 1.5967203676700592 -7.991507649421692 5.677455291152 -0.6082710670307279 4.311460219323635 -4.040771014988422 2.564384937286377 0.5072063952684402 -1.4326214790344238 3.2422445341944695 -3.351074829697609 9.290650337934494 -7.255866229534149 1.8634048663079739 10.029494985938072 3.3767563104629517 7.815593630075455 -5.599049963057041 -1.3504771515727043 3.143705874681473 -0.9750272333621979 0.5357853323221207 -15.353385508060455 12.138672173023224 -4.496512189507484 1.2941192463040352 7.464256435632706 1.0201284103095531 6.307747587561607 4.010012447834015 -0.620027482509613 3.0785979330539703 3.4205547720193863 -5.415678396821022 -38.7979656457901 -35.912670493125916 -43.758689761161804 -32.48268038034439 70.26321172714233 34.56294268369675 -21.78880423307419 -16.75987020134926 -9.698356837034225 -2.7991053834557533 1.0139299929141998 -6.04809433221817 46.00771129131317 -21.993770599365234 51.83715999126434 26.782932579517365 61.62730872631073 -29.894662499427795 6.147608309984207 -14.737951308488846 17.918199598789215
-0.01577496633399278 57.59004592895508 0.3274616617709398 -23.965827226638794 2.08451796323061 -16.8116395175457 5.4591067135334015 11.648045182228088 -8.155033215880394 7.383682876825333 -9.89178903400898 -3.543785512447357 0.18639340996742249 15.078150629997253 4.786815717816353 6.712811440229416 -17.079185843467712 -1.3189957290887833 -3.0031688511371613 0.9583391156047583 3.089095428586006 2.9555676877498627 0.12210924178361893 5.3915683552622795 -4.563823565840721 -6.650145649909973 3.7522320449352264 59.09200966358185 27.37992525100708 11.67835146188736 -31.94745898246765 -34.094696044921875 64.04412925243378 -0.2809573709964752 -14.271102100610733 -0.028375927358865738 1.2619666010141373 -5.001367628574371 4.3076323717832565 5.058691464364529 -0.7253343611955643 -0.6729699298739433 4.82206966727972 0.6445807591080666 1.1504289507865906 17.04518347978592 11.07927605509758 -1.4488676190376282 -1.5418990328907967 -5.0468263775110245 7.502451092004776 5.122422426939011 6.729364022612572 -3.650764413177967 6.49472638964653 -2.208695188164711 7.8504737466573715 20.842688530683517 3.9256807789206505 2.935095392167568 5.121808536350727 1.5810321271419525 1.6570311784744263 1.6153214871883392 -1.8572916090488434 -1.287355050444603 3.8041720166802406 0.6020462885499 7.675089463591576 -61.66484892368317 33.881328999996185 -24.84368473291397 26.696479618549347 -25.23382008075714 -68.86195600032806 -3.0096185579895973 -4.843282923102379 0.5600734055042267 -7.125754952430725 4.45549450814724 -1.3009166345000267 3.140740357339382 -4.048951752483845 2.4117565155029297 -0.021129772067070007 -2.3254162073135376 3.3474407717585564 -2.825949266552925 9.67126652598381 -8.765102326869965 2.3457411490380764 10.52843950688839 2.6997560262680054 6.7657770216465 -5.370783247053623 -1.7715651914477348 1.4842875301837921 -0.5623318254947662 -0.5880334228277206 -16.112193167209625 12.434640526771545 -4.463571980595589 1.25642079859972 6.300617605447769 0.9353974275290966 5.796513184905052 3.5725709795951843 -0.5306348204612732 4.036457687616348 3.0960289388895035 -5.024392381310463 -39.59067642688751 -37.32488036155701 -44.71363127231598 -33.53007227182388 72.23733365535736 35.71432113647461 -20.641006529331207 -17.122027426958084 -10.265949815511703 -2.4349257722496986 0.6329275667667389 -5.380889475345612 49.115769267082214 -22.360739707946777 54.01945352554321 28.462722301483154 62.830928564071655 -31.044300198554993 6.531400233507156 -14.47390928864479 17.376425564289093
